<mxfile host="app.diagrams.net" modified="2024-04-25T06:15:16.738Z" agent="Mozilla/5.0 (Windows NT 10.0; Win64; x64) AppleWebKit/537.36 (KHTML, like Gecko) Chrome/124.0.0.0 Safari/537.36" version="24.2.5" etag="QQleEfvegIUeedpj5ksD" type="github">
  <diagram name="Halaman-1" id="izkOBUMa2QPvx1MbBBjQ">
    <mxGraphModel>
      <root>
        <mxCell id="0" />
        <mxCell id="1" parent="0" />
      </root>
    </mxGraphModel>
  </diagram>
</mxfile>
